<svg width="57" height="25" viewBox="0 0 57 25" fill="none" xmlns="http://www.w3.org/2000/svg">
<path d="M5.28409 24H0.784091L8.97727 0.727272H14.1818L22.3864 24H17.8864L11.6705 5.5H11.4886L5.28409 24ZM5.43182 14.875H17.7045V18.2614H5.43182V14.875ZM25.2699 24V6.54545H29.2585V9.45455H29.4403C29.7585 8.44697 30.304 7.67045 31.0767 7.125C31.857 6.57197 32.7472 6.29545 33.7472 6.29545C33.9744 6.29545 34.2282 6.30682 34.5085 6.32954C34.7964 6.3447 35.035 6.37121 35.2244 6.40909V10.1932C35.0502 10.1326 34.7737 10.0795 34.3949 10.0341C34.0237 9.98106 33.6638 9.95455 33.3153 9.95455C32.5653 9.95455 31.8911 10.1174 31.2926 10.4432C30.7017 10.7614 30.2358 11.2045 29.8949 11.7727C29.554 12.3409 29.3835 12.9962 29.3835 13.7386V24H25.2699ZM47.6108 6.54545V9.72727H37.5767V6.54545H47.6108ZM40.054 2.36364H44.1676V18.75C44.1676 19.303 44.2509 19.7273 44.4176 20.0227C44.5919 20.3106 44.8191 20.5076 45.0994 20.6136C45.3797 20.7197 45.6903 20.7727 46.0312 20.7727C46.2888 20.7727 46.5237 20.7538 46.7358 20.7159C46.9555 20.678 47.1222 20.6439 47.2358 20.6136L47.929 23.8295C47.7093 23.9053 47.3949 23.9886 46.9858 24.0795C46.5843 24.1705 46.0919 24.2235 45.5085 24.2386C44.4782 24.2689 43.5502 24.1136 42.7244 23.7727C41.8987 23.4242 41.2434 22.8864 40.7585 22.1591C40.2813 21.4318 40.0464 20.5227 40.054 19.4318V2.36364ZM53.5852 24.25C52.8958 24.25 52.3049 24.0076 51.8125 23.5227C51.3201 23.0379 51.0777 22.447 51.0852 21.75C51.0777 21.0682 51.3201 20.4848 51.8125 20C52.3049 19.5152 52.8958 19.2727 53.5852 19.2727C54.2519 19.2727 54.8314 19.5152 55.3239 20C55.8239 20.4848 56.0777 21.0682 56.0852 21.75C56.0777 22.2121 55.9564 22.6326 55.7216 23.0114C55.4943 23.3902 55.1913 23.6932 54.8125 23.9205C54.4413 24.1402 54.0322 24.25 53.5852 24.25Z" fill="#0C0C0C"/>
</svg>
