<svg width="140" height="40" viewBox="0 0 152 31" fill="none" xmlns="http://www.w3.org/2000/svg">
<path d="M6.32 14.6H19.76V19.8H6.32V14.6ZM6.8 30H0.32V2H21.48V7.2H6.8V30ZM35.1591 30.32C32.8657 30.32 30.8257 29.84 29.0391 28.88C27.2791 27.92 25.8791 26.6133 24.8391 24.96C23.8257 23.28 23.3191 21.3733 23.3191 19.24C23.3191 17.08 23.8257 15.1733 24.8391 13.52C25.8791 11.84 27.2791 10.5333 29.0391 9.6C30.8257 8.64 32.8657 8.16 35.1591 8.16C37.4257 8.16 39.4524 8.64 41.2391 9.6C43.0257 10.5333 44.4257 11.8267 45.4391 13.48C46.4524 15.1333 46.9591 17.0533 46.9591 19.24C46.9591 21.3733 46.4524 23.28 45.4391 24.96C44.4257 26.6133 43.0257 27.92 41.2391 28.88C39.4524 29.84 37.4257 30.32 35.1591 30.32ZM35.1591 25.2C36.1991 25.2 37.1324 24.96 37.9591 24.48C38.7857 24 39.4391 23.32 39.9191 22.44C40.3991 21.5333 40.6391 20.4667 40.6391 19.24C40.6391 17.9867 40.3991 16.92 39.9191 16.04C39.4391 15.16 38.7857 14.48 37.9591 14C37.1324 13.52 36.1991 13.28 35.1591 13.28C34.1191 13.28 33.1857 13.52 32.3591 14C31.5324 14.48 30.8657 15.16 30.3591 16.04C29.8791 16.92 29.6391 17.9867 29.6391 19.24C29.6391 20.4667 29.8791 21.5333 30.3591 22.44C30.8657 23.32 31.5324 24 32.3591 24.48C33.1857 24.96 34.1191 25.2 35.1591 25.2ZM61.37 30.32C59.0767 30.32 57.0367 29.84 55.25 28.88C53.49 27.92 52.09 26.6133 51.05 24.96C50.0367 23.28 49.53 21.3733 49.53 19.24C49.53 17.08 50.0367 15.1733 51.05 13.52C52.09 11.84 53.49 10.5333 55.25 9.6C57.0367 8.64 59.0767 8.16 61.37 8.16C63.6367 8.16 65.6633 8.64 67.45 9.6C69.2367 10.5333 70.6367 11.8267 71.65 13.48C72.6633 15.1333 73.17 17.0533 73.17 19.24C73.17 21.3733 72.6633 23.28 71.65 24.96C70.6367 26.6133 69.2367 27.92 67.45 28.88C65.6633 29.84 63.6367 30.32 61.37 30.32ZM61.37 25.2C62.41 25.2 63.3433 24.96 64.17 24.48C64.9967 24 65.65 23.32 66.13 22.44C66.61 21.5333 66.85 20.4667 66.85 19.24C66.85 17.9867 66.61 16.92 66.13 16.04C65.65 15.16 64.9967 14.48 64.17 14C63.3433 13.52 62.41 13.28 61.37 13.28C60.33 13.28 59.3967 13.52 58.57 14C57.7433 14.48 57.0767 15.16 56.57 16.04C56.09 16.92 55.85 17.9867 55.85 19.24C55.85 20.4667 56.09 21.5333 56.57 22.44C57.0767 23.32 57.7433 24 58.57 24.48C59.3967 24.96 60.33 25.2 61.37 25.2ZM86.5809 30.32C84.5543 30.32 82.7276 29.8667 81.1009 28.96C79.4743 28.0267 78.1809 26.7333 77.2209 25.08C76.2876 23.4267 75.8209 21.48 75.8209 19.24C75.8209 16.9733 76.2876 15.0133 77.2209 13.36C78.1809 11.7067 79.4743 10.4267 81.1009 9.52C82.7276 8.61333 84.5543 8.16 86.5809 8.16C88.3943 8.16 89.9809 8.56 91.3409 9.36C92.7009 10.16 93.7543 11.3733 94.5009 13C95.2476 14.6267 95.6209 16.7067 95.6209 19.24C95.6209 21.7467 95.2609 23.8267 94.5409 25.48C93.8209 27.1067 92.7809 28.32 91.4209 29.12C90.0876 29.92 88.4743 30.32 86.5809 30.32ZM87.6609 25.2C88.6743 25.2 89.5943 24.96 90.4209 24.48C91.2476 24 91.9009 23.32 92.3809 22.44C92.8876 21.5333 93.1409 20.4667 93.1409 19.24C93.1409 17.9867 92.8876 16.92 92.3809 16.04C91.9009 15.16 91.2476 14.48 90.4209 14C89.5943 13.52 88.6743 13.28 87.6609 13.28C86.6209 13.28 85.6876 13.52 84.8609 14C84.0343 14.48 83.3676 15.16 82.8609 16.04C82.3809 16.92 82.1409 17.9867 82.1409 19.24C82.1409 20.4667 82.3809 21.5333 82.8609 22.44C83.3676 23.32 84.0343 24 84.8609 24.48C85.6876 24.96 86.6209 25.2 87.6609 25.2ZM93.3009 30V25.6L93.4209 19.2L93.0209 12.84V0.319998H99.2609V30H93.3009Z" fill="#292929"/>
<path d="M110.636 30.48C108.743 30.48 106.996 30.1333 105.396 29.44C103.823 28.72 102.53 27.7067 101.516 26.4L105.116 22.08C105.89 23.0933 106.703 23.8667 107.556 24.4C108.41 24.9067 109.33 25.16 110.316 25.16C112.956 25.16 114.276 23.6133 114.276 20.52V7.2H104.436V2H120.716V20.16C120.716 23.6267 119.863 26.2133 118.156 27.92C116.45 29.6267 113.943 30.48 110.636 30.48ZM127.117 30V2H139.237C141.744 2 143.904 2.41333 145.717 3.24C147.53 4.04 148.93 5.2 149.917 6.72C150.904 8.24 151.397 10.0533 151.397 12.16C151.397 14.24 150.904 16.04 149.917 17.56C148.93 19.08 147.53 20.2533 145.717 21.08C143.904 21.88 141.744 22.28 139.237 22.28H130.717L133.597 19.36V30H127.117ZM133.597 20.08L130.717 17H138.877C140.877 17 142.37 16.5733 143.357 15.72C144.344 14.8667 144.837 13.68 144.837 12.16C144.837 10.6133 144.344 9.41333 143.357 8.56C142.37 7.70667 140.877 7.28 138.877 7.28H130.717L133.597 4.2V20.08Z" fill="#DA2535"/>
</svg>
