<svg width="30" height="30" viewBox="0 0 30 30" fill="none" xmlns="http://www.w3.org/2000/svg">
<path d="M26.25 12.4999C26.25 21.2499 15 28.7499 15 28.7499C15 28.7499 3.75 21.2499 3.75 12.4999C3.75 9.51619 4.93526 6.65471 7.04505 4.54493C9.15483 2.43514 12.0163 1.24988 15 1.24988C17.9837 1.24988 20.8452 2.43514 22.9549 4.54493C25.0647 6.65471 26.25 9.51619 26.25 12.4999Z" stroke="#DA2535" stroke-width="2" stroke-linecap="round" stroke-linejoin="round"/>
<path d="M15 16.2499C17.0711 16.2499 18.75 14.5709 18.75 12.4999C18.75 10.4288 17.0711 8.74988 15 8.74988C12.9289 8.74988 11.25 10.4288 11.25 12.4999C11.25 14.5709 12.9289 16.2499 15 16.2499Z" stroke="#DA2535" stroke-width="2" stroke-linecap="round" stroke-linejoin="round"/>
</svg>
