<svg width="19" height="17" viewBox="0 0 19 17" fill="none" xmlns="http://www.w3.org/2000/svg">
<path d="M8.54383 1.43714C8.8643 0.56252 10.1013 0.562521 10.4217 1.43714L11.8718 5.39455C12.0161 5.78855 12.3911 6.05051 12.8107 6.05051H17.0217C17.9805 6.05051 18.3897 7.26926 17.6252 7.84789L14.4218 10.2723C14.0873 10.5255 13.9464 10.9605 14.0689 11.3617L15.2605 15.2643C15.5324 16.1546 14.547 16.9008 13.7638 16.3977L10.0231 13.9956C9.69392 13.7842 9.27165 13.7842 8.94244 13.9956L5.20183 16.3977C4.41853 16.9008 3.43322 16.1546 3.70507 15.2643L4.89665 11.3617C5.01916 10.9605 4.87823 10.5255 4.54373 10.2723L1.34035 7.84788C0.575829 7.26926 0.985038 6.05051 1.94384 6.05051H6.15486C6.57448 6.05051 6.94946 5.78855 7.09382 5.39455L8.54383 1.43714Z" fill="#DA2535"/>
</svg>
