<svg width="161" height="19" viewBox="0 0 161 19" fill="none" xmlns="http://www.w3.org/2000/svg">
<path d="M5.872 18.24C4.8 18.24 3.808 18.032 2.896 17.616C2 17.2 1.264 16.6 0.688 15.816L2.464 13.68C2.928 14.32 3.432 14.8 3.976 15.12C4.536 15.44 5.144 15.6 5.8 15.6C7.544 15.6 8.416 14.568 8.416 12.504V3.816H2.44V1.2H11.536V12.336C11.536 14.32 11.048 15.8 10.072 16.776C9.112 17.752 7.712 18.24 5.872 18.24ZM21.3843 18.168C20.0723 18.168 18.9043 17.888 17.8803 17.328C16.8563 16.752 16.0483 15.968 15.4563 14.976C14.8643 13.984 14.5683 12.856 14.5683 11.592C14.5683 10.312 14.8643 9.184 15.4563 8.208C16.0483 7.216 16.8563 6.44 17.8803 5.88C18.9043 5.32 20.0723 5.04 21.3843 5.04C22.7123 5.04 23.8883 5.32 24.9123 5.88C25.9523 6.44 26.7603 7.208 27.3363 8.184C27.9283 9.16 28.2243 10.296 28.2243 11.592C28.2243 12.856 27.9283 13.984 27.3363 14.976C26.7603 15.968 25.9523 16.752 24.9123 17.328C23.8883 17.888 22.7123 18.168 21.3843 18.168ZM21.3843 15.6C22.1203 15.6 22.7763 15.44 23.3523 15.12C23.9283 14.8 24.3763 14.336 24.6963 13.728C25.0323 13.12 25.2003 12.408 25.2003 11.592C25.2003 10.76 25.0323 10.048 24.6963 9.456C24.3763 8.848 23.9283 8.384 23.3523 8.064C22.7763 7.744 22.1283 7.584 21.4083 7.584C20.6723 7.584 20.0163 7.744 19.4403 8.064C18.8803 8.384 18.4323 8.848 18.0963 9.456C17.7603 10.048 17.5923 10.76 17.5923 11.592C17.5923 12.408 17.7603 13.12 18.0963 13.728C18.4323 14.336 18.8803 14.8 19.4403 15.12C20.0163 15.44 20.6643 15.6 21.3843 15.6ZM31.093 18V5.184H33.949V8.712L33.613 7.68C33.997 6.816 34.597 6.16 35.413 5.712C36.245 5.264 37.277 5.04 38.509 5.04V7.896C38.381 7.864 38.261 7.848 38.149 7.848C38.037 7.832 37.925 7.824 37.813 7.824C36.677 7.824 35.773 8.16 35.101 8.832C34.429 9.488 34.093 10.472 34.093 11.784V18H31.093ZM46.3608 18.168C45.1288 18.168 44.0168 17.896 43.0248 17.352C42.0488 16.792 41.2808 16.024 40.7208 15.048C40.1608 14.072 39.8808 12.92 39.8808 11.592C39.8808 10.264 40.1608 9.112 40.7208 8.136C41.2808 7.16 42.0488 6.4 43.0248 5.856C44.0168 5.312 45.1288 5.04 46.3608 5.04C47.4328 5.04 48.3928 5.28 49.2408 5.76C50.0888 6.224 50.7608 6.936 51.2568 7.896C51.7528 8.856 52.0008 10.088 52.0008 11.592C52.0008 13.08 51.7608 14.312 51.2808 15.288C50.8008 16.248 50.1368 16.968 49.2888 17.448C48.4408 17.928 47.4648 18.168 46.3608 18.168ZM46.7208 15.6C47.4408 15.6 48.0808 15.44 48.6408 15.12C49.2168 14.8 49.6728 14.336 50.0088 13.728C50.3608 13.12 50.5368 12.408 50.5368 11.592C50.5368 10.76 50.3608 10.048 50.0088 9.456C49.6728 8.848 49.2168 8.384 48.6408 8.064C48.0808 7.744 47.4408 7.584 46.7208 7.584C46.0008 7.584 45.3528 7.744 44.7768 8.064C44.2168 8.384 43.7608 8.848 43.4088 9.456C43.0728 10.048 42.9048 10.76 42.9048 11.592C42.9048 12.408 43.0728 13.12 43.4088 13.728C43.7608 14.336 44.2168 14.8 44.7768 15.12C45.3528 15.44 46.0008 15.6 46.7208 15.6ZM50.6088 18V14.976L50.7288 11.568L50.4888 8.16V0.191999H53.4648V18H50.6088ZM65.3093 18V15.408L65.1413 14.856V10.32C65.1413 9.44 64.8773 8.76 64.3493 8.28C63.8213 7.784 63.0213 7.536 61.9493 7.536C61.2293 7.536 60.5173 7.648 59.8133 7.872C59.1253 8.096 58.5413 8.408 58.0613 8.808L56.8853 6.624C57.5733 6.096 58.3893 5.704 59.3333 5.448C60.2933 5.176 61.2853 5.04 62.3093 5.04C64.1653 5.04 65.5973 5.488 66.6053 6.384C67.6293 7.264 68.1413 8.632 68.1413 10.488V18H65.3093ZM61.2773 18.168C60.3173 18.168 59.4773 18.008 58.7573 17.688C58.0373 17.352 57.4773 16.896 57.0773 16.32C56.6933 15.728 56.5013 15.064 56.5013 14.328C56.5013 13.608 56.6693 12.96 57.0053 12.384C57.3573 11.808 57.9253 11.352 58.7093 11.016C59.4933 10.68 60.5333 10.512 61.8293 10.512H65.5493V12.504H62.0453C61.0213 12.504 60.3333 12.672 59.9813 13.008C59.6293 13.328 59.4533 13.728 59.4533 14.208C59.4533 14.752 59.6693 15.184 60.1013 15.504C60.5333 15.824 61.1333 15.984 61.9013 15.984C62.6373 15.984 63.2933 15.816 63.8693 15.48C64.4613 15.144 64.8853 14.648 65.1413 13.992L65.6453 15.792C65.3573 16.544 64.8373 17.128 64.0853 17.544C63.3493 17.96 62.4133 18.168 61.2773 18.168ZM79.2634 5.04C80.2874 5.04 81.1994 5.24 81.9994 5.64C82.8154 6.04 83.4554 6.656 83.9194 7.488C84.3834 8.304 84.6154 9.36 84.6154 10.656V18H81.6154V11.04C81.6154 9.904 81.3434 9.056 80.7994 8.496C80.2714 7.936 79.5274 7.656 78.5674 7.656C77.8634 7.656 77.2394 7.8 76.6954 8.088C76.1514 8.376 75.7274 8.808 75.4234 9.384C75.1354 9.944 74.9914 10.656 74.9914 11.52V18H71.9914V5.184H74.8474V8.64L74.3434 7.584C74.7914 6.768 75.4394 6.144 76.2874 5.712C77.1514 5.264 78.1434 5.04 79.2634 5.04ZM93.9171 18.24C92.6051 18.24 91.3491 18.056 90.1491 17.688C88.9491 17.304 87.9971 16.816 87.2931 16.224L88.3731 13.8C89.0451 14.328 89.8771 14.768 90.8691 15.12C91.8611 15.472 92.8771 15.648 93.9171 15.648C94.7971 15.648 95.5091 15.552 96.0531 15.36C96.5971 15.168 96.9971 14.912 97.2531 14.592C97.5091 14.256 97.6371 13.88 97.6371 13.464C97.6371 12.952 97.4531 12.544 97.0851 12.24C96.7171 11.92 96.2371 11.672 95.6451 11.496C95.0691 11.304 94.4211 11.128 93.7011 10.968C92.9971 10.808 92.2851 10.624 91.5651 10.416C90.8611 10.192 90.2131 9.912 89.6211 9.576C89.0451 9.224 88.5731 8.76 88.2051 8.184C87.8371 7.608 87.6531 6.872 87.6531 5.976C87.6531 5.064 87.8931 4.232 88.3731 3.48C88.8691 2.712 89.6131 2.104 90.6051 1.656C91.6131 1.192 92.8851 0.959999 94.4211 0.959999C95.4291 0.959999 96.4291 1.088 97.4211 1.344C98.4131 1.6 99.2771 1.968 100.013 2.448L99.0291 4.872C98.2771 4.424 97.5011 4.096 96.7011 3.888C95.9011 3.664 95.1331 3.552 94.3971 3.552C93.5331 3.552 92.8291 3.656 92.2851 3.864C91.7571 4.072 91.3651 4.344 91.1091 4.68C90.8691 5.016 90.7491 5.4 90.7491 5.832C90.7491 6.344 90.9251 6.76 91.2771 7.08C91.6451 7.384 92.1171 7.624 92.6931 7.8C93.2851 7.976 93.9411 8.152 94.6611 8.328C95.3811 8.488 96.0931 8.672 96.7971 8.88C97.5171 9.088 98.1651 9.36 98.7411 9.696C99.3331 10.032 99.8051 10.488 100.157 11.064C100.525 11.64 100.709 12.368 100.709 13.248C100.709 14.144 100.461 14.976 99.9651 15.744C99.4851 16.496 98.7411 17.104 97.7331 17.568C96.7251 18.016 95.4531 18.24 93.9171 18.24ZM110.787 5.04C111.811 5.04 112.723 5.24 113.523 5.64C114.339 6.04 114.979 6.656 115.443 7.488C115.907 8.304 116.139 9.36 116.139 10.656V18H113.139V11.04C113.139 9.904 112.867 9.056 112.323 8.496C111.795 7.936 111.051 7.656 110.091 7.656C109.387 7.656 108.763 7.8 108.219 8.088C107.675 8.376 107.251 8.808 106.947 9.384C106.659 9.944 106.515 10.656 106.515 11.52V18H103.515V0.191999H106.515V8.64L105.867 7.584C106.315 6.768 106.963 6.144 107.811 5.712C108.675 5.264 109.667 5.04 110.787 5.04ZM125.728 18.168C124.416 18.168 123.248 17.888 122.224 17.328C121.2 16.752 120.392 15.968 119.8 14.976C119.208 13.984 118.912 12.856 118.912 11.592C118.912 10.312 119.208 9.184 119.8 8.208C120.392 7.216 121.2 6.44 122.224 5.88C123.248 5.32 124.416 5.04 125.728 5.04C127.056 5.04 128.232 5.32 129.256 5.88C130.296 6.44 131.104 7.208 131.68 8.184C132.272 9.16 132.568 10.296 132.568 11.592C132.568 12.856 132.272 13.984 131.68 14.976C131.104 15.968 130.296 16.752 129.256 17.328C128.232 17.888 127.056 18.168 125.728 18.168ZM125.728 15.6C126.464 15.6 127.12 15.44 127.696 15.12C128.272 14.8 128.72 14.336 129.04 13.728C129.376 13.12 129.544 12.408 129.544 11.592C129.544 10.76 129.376 10.048 129.04 9.456C128.72 8.848 128.272 8.384 127.696 8.064C127.12 7.744 126.472 7.584 125.752 7.584C125.016 7.584 124.36 7.744 123.784 8.064C123.224 8.384 122.776 8.848 122.44 9.456C122.104 10.048 121.936 10.76 121.936 11.592C121.936 12.408 122.104 13.12 122.44 13.728C122.776 14.336 123.224 14.8 123.784 15.12C124.36 15.44 125.008 15.6 125.728 15.6ZM141.461 18.168C140.037 18.168 138.789 17.888 137.717 17.328C136.661 16.752 135.837 15.968 135.245 14.976C134.669 13.984 134.381 12.856 134.381 11.592C134.381 10.312 134.661 9.184 135.221 8.208C135.797 7.216 136.581 6.44 137.573 5.88C138.581 5.32 139.725 5.04 141.005 5.04C142.253 5.04 143.365 5.312 144.341 5.856C145.317 6.4 146.085 7.168 146.645 8.16C147.205 9.152 147.485 10.32 147.485 11.664C147.485 11.792 147.477 11.936 147.461 12.096C147.461 12.256 147.453 12.408 147.437 12.552H136.757V10.56H145.853L144.677 11.184C144.693 10.448 144.541 9.8 144.221 9.24C143.901 8.68 143.461 8.24 142.901 7.92C142.357 7.6 141.725 7.44 141.005 7.44C140.269 7.44 139.621 7.6 139.061 7.92C138.517 8.24 138.085 8.688 137.765 9.264C137.461 9.824 137.309 10.488 137.309 11.256V11.736C137.309 12.504 137.485 13.184 137.837 13.776C138.189 14.368 138.685 14.824 139.325 15.144C139.965 15.464 140.701 15.624 141.533 15.624C142.253 15.624 142.901 15.512 143.477 15.288C144.053 15.064 144.565 14.712 145.013 14.232L146.621 16.08C146.045 16.752 145.317 17.272 144.437 17.64C143.573 17.992 142.581 18.168 141.461 18.168ZM154.326 18.168C153.254 18.168 152.222 18.032 151.23 17.76C150.254 17.472 149.478 17.128 148.902 16.728L150.054 14.448C150.63 14.816 151.318 15.12 152.118 15.36C152.918 15.6 153.718 15.72 154.518 15.72C155.462 15.72 156.142 15.592 156.558 15.336C156.99 15.08 157.206 14.736 157.206 14.304C157.206 13.952 157.062 13.688 156.774 13.512C156.486 13.32 156.11 13.176 155.646 13.08C155.182 12.984 154.662 12.896 154.086 12.816C153.526 12.736 152.958 12.632 152.382 12.504C151.822 12.36 151.31 12.16 150.846 11.904C150.382 11.632 150.006 11.272 149.718 10.824C149.43 10.376 149.286 9.784 149.286 9.048C149.286 8.232 149.518 7.528 149.982 6.936C150.446 6.328 151.094 5.864 151.926 5.544C152.774 5.208 153.774 5.04 154.926 5.04C155.79 5.04 156.662 5.136 157.542 5.328C158.422 5.52 159.15 5.792 159.726 6.144L158.574 8.424C157.966 8.056 157.35 7.808 156.726 7.68C156.118 7.536 155.51 7.464 154.902 7.464C153.99 7.464 153.31 7.6 152.862 7.872C152.43 8.144 152.214 8.488 152.214 8.904C152.214 9.288 152.358 9.576 152.646 9.768C152.934 9.96 153.31 10.112 153.774 10.224C154.238 10.336 154.75 10.432 155.31 10.512C155.886 10.576 156.454 10.68 157.014 10.824C157.574 10.968 158.086 11.168 158.55 11.424C159.03 11.664 159.414 12.008 159.702 12.456C159.99 12.904 160.134 13.488 160.134 14.208C160.134 15.008 159.894 15.704 159.414 16.296C158.95 16.888 158.286 17.352 157.422 17.688C156.558 18.008 155.526 18.168 154.326 18.168Z" fill="#181818"/>
</svg>
