<svg width="40" height="40" viewBox="0 0 40 40" fill="none" xmlns="http://www.w3.org/2000/svg">
<path d="M7.56757 19.4595L10.2102 16.8169M10.2102 16.8169L19.4595 7.56763L28.7087 16.8169M10.2102 16.8169V30.0301C10.2102 30.7598 10.8018 31.3514 11.5315 31.3514H15.4955M28.7087 16.8169L31.3514 19.4595M28.7087 16.8169V30.0301C28.7087 30.7598 28.1171 31.3514 27.3874 31.3514H23.4234M15.4955 31.3514C16.2252 31.3514 16.8168 30.7598 16.8168 30.0301V24.7448C16.8168 24.0151 17.4084 23.4235 18.1381 23.4235H20.7808C21.5105 23.4235 22.1021 24.0151 22.1021 24.7448V30.0301C22.1021 30.7598 22.6937 31.3514 23.4234 31.3514M15.4955 31.3514H23.4234" stroke="#F9F9F9" stroke-width="2" stroke-linecap="round" stroke-linejoin="round"/>
</svg>
